<svg width="54" height="54" viewBox="0 0 54 54" fill="none" xmlns="http://www.w3.org/2000/svg">
<path d="M19.7259 17.1224C19.007 16.4034 17.8414 16.4034 17.1225 17.1224C16.4036 17.8413 16.4036 19.0069 17.1225 19.7258L24.3964 26.9996L17.1225 34.2735C16.4036 34.9924 16.4036 36.158 17.1225 36.8769C17.8414 37.5958 19.007 37.5958 19.7259 36.8769L26.9998 29.6031L34.2736 36.8769C34.9926 37.5958 36.1582 37.5958 36.8771 36.8769C37.596 36.158 37.596 34.9924 36.8771 34.2735L29.6032 26.9996L36.8771 19.7258C37.596 19.0069 37.596 17.8413 36.8771 17.1224C36.1582 16.4034 34.9926 16.4034 34.2736 17.1224L26.9998 24.3962L19.7259 17.1224Z" fill="#9A1C1C"/>
<path fill-rule="evenodd" clip-rule="evenodd" d="M27 0C12.0883 0 0 12.0883 0 27C0 41.9117 12.0883 54 27 54C41.9117 54 54 41.9117 54 27C54 12.0883 41.9117 0 27 0ZM3.68182 27C3.68182 14.1217 14.1217 3.68182 27 3.68182C39.8783 3.68182 50.3182 14.1217 50.3182 27C50.3182 39.8783 39.8783 50.3182 27 50.3182C14.1217 50.3182 3.68182 39.8783 3.68182 27Z" fill="#9A1C1C"/>
</svg>
