<svg width="54" height="54" viewBox="0 0 54 54" fill="none" xmlns="http://www.w3.org/2000/svg">
<path d="M39.9608 20.3244C40.6797 19.6055 40.6797 18.4399 39.9608 17.721C39.2419 17.0021 38.0763 17.0021 37.3574 17.721L22.7045 32.3738L16.6426 26.3119C15.9237 25.593 14.7581 25.593 14.0392 26.3119C13.3203 27.0308 13.3203 28.1964 14.0392 28.9154L21.4028 36.279C22.1217 36.9979 23.2873 36.9979 24.0063 36.279L39.9608 20.3244Z" fill="#2A6744"/>
<path fill-rule="evenodd" clip-rule="evenodd" d="M27 0C12.0883 0 0 12.0883 0 27C0 41.9117 12.0883 54 27 54C41.9117 54 54 41.9117 54 27C54 12.0883 41.9117 0 27 0ZM3.68182 27C3.68182 14.1217 14.1217 3.68182 27 3.68182C39.8783 3.68182 50.3182 14.1217 50.3182 27C50.3182 39.8783 39.8783 50.3182 27 50.3182C14.1217 50.3182 3.68182 39.8783 3.68182 27Z" fill="#2A6744"/>
</svg>
