<svg width="16" height="14" viewBox="0 0 16 14" fill="none" xmlns="http://www.w3.org/2000/svg">
<path fill-rule="evenodd" clip-rule="evenodd" d="M1.75 0C1.28587 0 0.840752 0.18437 0.512563 0.51256C0.184374 0.84075 0 1.28587 0 1.75V12.25C0 13.216 0.784 14 1.75 14H14.25C14.7141 14 15.1592 13.8156 15.4874 13.4874C15.8156 13.1592 16 12.7141 16 12.25V3.75C16 3.28587 15.8156 2.84075 15.4874 2.51256C15.1592 2.18437 14.7141 2 14.25 2H7.75C7.71119 2 7.67291 1.99096 7.6382 1.97361C7.60348 1.95625 7.57329 1.93105 7.55 1.9L6.65 0.7C6.32 0.26 5.8 0 5.25 0H1.75Z" fill="#BDC1C5"/>
</svg>
