<svg width="15" height="15" viewBox="0 0 15 15" fill="none" xmlns="http://www.w3.org/2000/svg">
<path fill-rule="evenodd" clip-rule="evenodd" d="M10.5 6.49999C10.5 7.09093 10.3836 7.6761 10.1574 8.22206C9.93127 8.76803 9.59977 9.2641 9.18197 9.68199C8.76407 10.0998 8.268 10.4313 7.72203 10.6575C7.17607 10.8836 6.59091 11 5.99996 11C5.40901 11 4.82385 10.8836 4.27788 10.6575C3.73192 10.4313 3.23584 10.0998 2.81798 9.68199C2.40011 9.2641 2.06865 8.76803 1.8425 8.22206C1.61635 7.6761 1.49996 7.09093 1.49996 6.49999C1.49996 5.30651 1.97406 4.16192 2.81798 3.31801C3.66189 2.47409 4.80648 1.99999 5.99996 1.99999C7.19343 1.99999 8.33802 2.47409 9.18197 3.31801C10.0259 4.16192 10.5 5.30651 10.5 6.49999ZM9.67997 11.24C8.47434 12.176 6.95733 12.6173 5.43776 12.4741C3.91819 12.331 2.5103 11.6141 1.50071 10.4694C0.491113 9.3247 -0.0442872 7.83828 0.00349282 6.31274C0.0512828 4.78719 0.678663 3.33719 1.75791 2.25794C2.83717 1.17869 4.28716 0.551314 5.81271 0.503524C7.33826 0.455741 8.82467 0.991144 9.96937 2.00074C11.1141 3.01033 11.831 4.41822 11.9741 5.93779C12.1173 7.45735 11.676 8.97436 10.74 10.18L13.78 13.22C13.8537 13.2887 13.9128 13.3715 13.9538 13.4635C13.9948 13.5555 14.0168 13.6548 14.0186 13.7555C14.0204 13.8562 14.0018 13.9562 13.9641 14.0496C13.9264 14.143 13.8702 14.2278 13.799 14.299C13.7278 14.3703 13.643 14.4264 13.5496 14.4641C13.4562 14.5018 13.3562 14.5204 13.2555 14.5186C13.1548 14.5168 13.0554 14.4948 12.9635 14.4538C12.8715 14.4128 12.7887 14.3537 12.72 14.28L9.67997 11.24Z" fill="#ACB0B5"/>
</svg>
