<svg width="15" height="15" viewBox="0 0 15 15" fill="none" xmlns="http://www.w3.org/2000/svg">
  <path class="icon-edit-path" fill-rule="evenodd" clip-rule="evenodd" d="M10.0126 1.42678C10.696 0.743359 11.804 0.743361 12.4874 1.42678L13.5732 2.51257C14.2566 3.19598 14.2566 4.30402 13.5732 4.98744L4.96355 13.5971C4.75325 13.8074 4.49283 13.9606 4.20687 14.0423L0.956032 14.9711C0.694132 15.046 0.412262 14.9729 0.219662 14.7803C0.027062 14.5877 -0.0459811 14.3059 0.0288419 14.044L0.957662 10.7931C1.03936 10.5072 1.19259 10.2467 1.40289 10.0364L10.0126 1.42678ZM11.4268 2.48744C11.3291 2.38981 11.1708 2.38981 11.0732 2.48744L9.8106 3.75L11.25 5.18934L12.5126 3.92678C12.6102 3.82915 12.6102 3.67086 12.5126 3.57323L11.4268 2.48744ZM10.1893 6.25L8.74999 4.81066L2.46355 11.0971C2.43351 11.1271 2.41162 11.1643 2.39994 11.2052L1.842 13.158L3.79479 12.6C3.83564 12.5884 3.87284 12.5665 3.90289 12.5364L10.1893 6.25Z" fill="#9FC7F8"/>
</svg>
