<svg width="16" height="14" viewBox="0 0 16 14" fill="none" xmlns="http://www.w3.org/2000/svg">
<path d="M0.512563 0.51256C0.840752 0.18437 1.28587 0 1.75 0H5.25C5.8 0 6.32 0.26 6.65 0.7L7.55 1.9C7.57329 1.93105 7.60348 1.95625 7.6382 1.97361C7.67291 1.99096 7.71119 2 7.75 2H13C13.5523 2 14 2.44772 14 3V3.5H2.75C2.33579 3.5 2 3.83579 2 4.25C2 4.66421 2.33579 5 2.75 5H14.7284C15.327 5 15.7915 5.52235 15.7215 6.11684L15 12.25C15 12.7141 14.8156 13.1592 14.4874 13.4874C14.1592 13.8156 13.7141 14 13.25 14H1.75C0.784 14 0 13.216 0 12.25V1.75C0 1.28587 0.184374 0.84075 0.512563 0.51256Z" fill="#9FC7F8"/>
</svg>
