<svg width="15" height="15" viewBox="0 0 15 15" fill="none" xmlns="http://www.w3.org/2000/svg">
<path fill-rule="evenodd" clip-rule="evenodd" d="M10.0126 0.926779C10.696 0.243359 11.804 0.243361 12.4874 0.926779L13.5732 2.01257C14.2566 2.69598 14.2566 3.80402 13.5732 4.48744L4.96352 13.0971C4.75322 13.3074 4.4928 13.4606 4.20684 13.5423L0.956001 14.4711C0.694101 14.546 0.412231 14.4729 0.219631 14.2803C0.0270315 14.0877 -0.0460117 13.8059 0.0288113 13.544L0.957631 10.2931C1.03933 10.0072 1.19256 9.7467 1.40286 9.5364L10.0126 0.926779ZM11.4268 1.98744C11.3291 1.88981 11.1708 1.88981 11.0732 1.98744L9.81057 3.25L11.25 4.68934L12.5126 3.42678C12.6102 3.32915 12.6102 3.17086 12.5126 3.07323L11.4268 1.98744ZM10.1893 5.75L8.74996 4.31066L2.46352 10.5971C2.43348 10.6271 2.41159 10.6643 2.39991 10.7052L1.84197 12.658L3.79476 12.1C3.83561 12.0884 3.87281 12.0665 3.90286 12.0364L10.1893 5.75Z" fill="#575757"/>
</svg>
