<svg width="12" height="16" viewBox="0 0 12 16" fill="none" xmlns="http://www.w3.org/2000/svg">
  <path class="icon-delete-path" fill-rule="evenodd" clip-rule="evenodd" d="M4.5 2.25C4.5 2.11193 4.61193 2 4.75 2H7.25C7.38807 2 7.5 2.11193 7.5 2.25V3.5H4.5V2.25ZM9 2.25V3.5H11.25C11.6642 3.5 12 3.83579 12 4.25C12 4.66421 11.6642 5 11.25 5H0.75C0.33579 5 0 4.66421 0 4.25C0 3.83579 0.33579 3.5 0.75 3.5H3V2.25C3 1.2835 3.7835 0.5 4.75 0.5H7.25C8.2165 0.5 9 1.2835 9 2.25ZM2.49627 7.17537C2.45506 6.76321 2.08753 6.4625 1.67537 6.50372C1.26321 6.54493 0.9625 6.91247 1.00372 7.32462L1.66367 13.9241C1.75313 14.8187 2.50592 15.5 3.40498 15.5H8.595C9.4941 15.5 10.2469 14.8187 10.3363 13.9241L10.9963 7.32462C11.0375 6.91247 10.7368 6.54493 10.3246 6.50372C9.9125 6.4625 9.5449 6.76321 9.5037 7.17537L8.8438 13.7749C8.831 13.9027 8.7234 14 8.595 14H3.40498C3.27655 14 3.169 13.9027 3.15622 13.7749L2.49627 7.17537Z" fill="#9A1C1C"/>
</svg>
