<svg width="22" height="22" viewBox="0 0 22 22" fill="none" xmlns="http://www.w3.org/2000/svg">
<path d="M3.72594 1.12235C3.00702 0.403431 1.84142 0.403431 1.1225 1.12235C0.403583 1.84127 0.403583 3.00687 1.1225 3.72579L8.39635 10.9996L1.1225 18.2735C0.403583 18.9924 0.403583 20.158 1.1225 20.8769C1.84142 21.5958 3.00702 21.5958 3.72594 20.8769L10.9998 13.6031L18.2736 20.8769C18.9926 21.5958 20.1582 21.5958 20.8771 20.8769C21.596 20.158 21.596 18.9924 20.8771 18.2735L13.6032 10.9996L20.8771 3.72579C21.596 3.00687 21.596 1.84127 20.8771 1.12235C20.1582 0.403431 18.9926 0.403431 18.2736 1.12235L10.9998 8.3962L3.72594 1.12235Z" fill="#A4A8AD"/>
</svg>
